<?xml version="1.0" encoding="UTF-8"?>
<svg xmlns="http://www.w3.org/2000/svg" viewBox="0 0 1024 1024" width="1024" height="1024">
  <defs>
    <linearGradient id="bg" x1="0" y1="0" x2="0.2" y2="1">
      <stop offset="0" stop-color="#111118"/>
      <stop offset="1" stop-color="#0a0a0e"/>
    </linearGradient>
  </defs>
  <rect width="1024" height="1024" fill="url(#bg)"/>
  <!-- 1: Scatter -->
  <rect x="861.2" y="177.6" width="99.1" height="99.1" rx="23.8" fill="#e0e0e0" opacity="0.081"/>
  <!-- 2: Growth -->
  <rect x="63.7" y="291.6" width="99.1" height="99.1" rx="23.8" fill="#ebebeb" opacity="0.271"/>
  <rect x="861.2" y="291.6" width="99.1" height="99.1" rx="23.8" fill="#f0f0f0" opacity="0.307"/>
  <rect x="177.6" y="519.4" width="99.1" height="99.1" rx="23.8" fill="#f0f0f0" opacity="0.365"/>
  <rect x="633.3" y="519.4" width="99.1" height="99.1" rx="23.8" fill="#d0d0d0" opacity="0.262"/>
  <rect x="747.2" y="633.3" width="99.1" height="99.1" rx="23.8" fill="#ebebeb" opacity="0.300"/>
  <rect x="861.2" y="861.2" width="99.1" height="99.1" rx="23.8" fill="#f0f0f0" opacity="0.280"/>
  <!-- 3: Pi mono (exposed→edge→core gradient) -->
  <rect x="291.6" y="747.2" width="99.1" height="99.1" rx="23.8" fill="#f0f0f0" opacity="0.484"/>
  <rect x="177.6" y="177.6" width="99.1" height="99.1" rx="23.8" fill="#e8e5e0" opacity="0.771"/>
  <rect x="519.4" y="177.6" width="99.1" height="99.1" rx="23.8" fill="#f0f0f0" opacity="0.726"/>
  <rect x="633.3" y="177.6" width="99.1" height="99.1" rx="23.8" fill="#e8e5e0" opacity="0.727"/>
  <rect x="747.2" y="177.6" width="99.1" height="99.1" rx="23.8" fill="#e8e5e0" opacity="0.740"/>
  <rect x="633.3" y="291.6" width="99.1" height="99.1" rx="23.8" fill="#d0d0d0" opacity="0.685"/>
  <rect x="291.6" y="519.4" width="99.1" height="99.1" rx="23.8" fill="#f0f0f0" opacity="0.685"/>
  <rect x="633.3" y="633.3" width="99.1" height="99.1" rx="23.8" fill="#f0f0f0" opacity="0.720"/>
  <rect x="633.3" y="747.2" width="99.1" height="99.1" rx="23.8" fill="#ebebeb" opacity="0.765"/>
  <rect x="747.2" y="747.2" width="99.1" height="99.1" rx="23.8" fill="#ebebeb" opacity="0.661"/>
  <!-- 4: Almost-sparks (tinted) -->
  <rect x="405.5" y="177.6" width="99.1" height="99.1" rx="23.8" fill="#e0ccc0" opacity="0.878"/>
  <rect x="291.6" y="291.6" width="99.1" height="99.1" rx="23.8" fill="#ddc8b8" opacity="0.855"/>
  <rect x="633.3" y="405.5" width="99.1" height="99.1" rx="23.8" fill="#ddc8b8" opacity="0.802"/>
  <rect x="291.6" y="633.3" width="99.1" height="99.1" rx="23.8" fill="#d8c4bc" opacity="0.823"/>
  <!-- 5: Sparks (vivid) -->
  <rect x="291.6" y="177.6" width="99.1" height="99.1" rx="23.8" fill="#f0a030" opacity="0.950"/>
  <rect x="291.6" y="405.5" width="99.1" height="99.1" rx="23.8" fill="#e8445a" opacity="0.950"/>
</svg>