<?xml version="1.0" encoding="UTF-8"?>
<svg xmlns="http://www.w3.org/2000/svg" viewBox="0 0 1024 1024" width="1024" height="1024">
  <defs>
    <linearGradient id="bg" x1="0" y1="0" x2="0.2" y2="1">
      <stop offset="0" stop-color="#111118"/>
      <stop offset="1" stop-color="#0a0a0e"/>
    </linearGradient>
  </defs>
  <rect width="1024" height="1024" fill="url(#bg)"/>
  <!-- 1: Scatter -->
  <rect x="747.2" y="519.4" width="99.1" height="99.1" rx="23.8" fill="#e0e0e0" opacity="0.104"/>
  <!-- 2: Growth -->
  <rect x="63.7" y="63.7" width="99.1" height="99.1" rx="23.8" fill="#e0e0e0" opacity="0.388"/>
  <rect x="177.6" y="63.7" width="99.1" height="99.1" rx="23.8" fill="#e0e0e0" opacity="0.301"/>
  <rect x="63.7" y="291.6" width="99.1" height="99.1" rx="23.8" fill="#d0d0d0" opacity="0.317"/>
  <rect x="405.5" y="861.2" width="99.1" height="99.1" rx="23.8" fill="#ebebeb" opacity="0.330"/>
  <rect x="747.2" y="861.2" width="99.1" height="99.1" rx="23.8" fill="#ebebeb" opacity="0.277"/>
  <rect x="861.2" y="861.2" width="99.1" height="99.1" rx="23.8" fill="#d0d0d0" opacity="0.311"/>
  <!-- 3: Pi mono (exposed→edge→core gradient) -->
  <rect x="747.2" y="177.6" width="99.1" height="99.1" rx="23.8" fill="#ebebeb" opacity="0.506"/>
  <rect x="291.6" y="747.2" width="99.1" height="99.1" rx="23.8" fill="#ebebeb" opacity="0.544"/>
  <rect x="519.4" y="177.6" width="99.1" height="99.1" rx="23.8" fill="#ebebeb" opacity="0.658"/>
  <rect x="291.6" y="291.6" width="99.1" height="99.1" rx="23.8" fill="#ebebeb" opacity="0.651"/>
  <rect x="633.3" y="405.5" width="99.1" height="99.1" rx="23.8" fill="#e8e5e0" opacity="0.703"/>
  <rect x="633.3" y="519.4" width="99.1" height="99.1" rx="23.8" fill="#e0e0e0" opacity="0.784"/>
  <rect x="633.3" y="633.3" width="99.1" height="99.1" rx="23.8" fill="#d0d0d0" opacity="0.713"/>
  <rect x="633.3" y="747.2" width="99.1" height="99.1" rx="23.8" fill="#e0e0e0" opacity="0.673"/>
  <rect x="747.2" y="747.2" width="99.1" height="99.1" rx="23.8" fill="#ebebeb" opacity="0.688"/>
  <!-- 4: Almost-sparks (tinted) -->
  <rect x="405.5" y="177.6" width="99.1" height="99.1" rx="23.8" fill="#e0ccc0" opacity="0.812"/>
  <rect x="633.3" y="291.6" width="99.1" height="99.1" rx="23.8" fill="#e0c0b0" opacity="0.870"/>
  <rect x="291.6" y="519.4" width="99.1" height="99.1" rx="23.8" fill="#d8c4bc" opacity="0.894"/>
  <rect x="291.6" y="633.3" width="99.1" height="99.1" rx="23.8" fill="#e0c0b0" opacity="0.886"/>
  <!-- 5: Sparks (vivid) -->
  <rect x="177.6" y="177.6" width="99.1" height="99.1" rx="23.8" fill="#f0a030" opacity="0.950"/>
  <rect x="291.6" y="177.6" width="99.1" height="99.1" rx="23.8" fill="#f0a030" opacity="0.950"/>
  <rect x="633.3" y="177.6" width="99.1" height="99.1" rx="23.8" fill="#f05a28" opacity="0.950"/>
</svg>