<?xml version="1.0" encoding="UTF-8"?>
<svg xmlns="http://www.w3.org/2000/svg" viewBox="0 0 1024 1024" width="1024" height="1024">
  <defs>
    <linearGradient id="bg" x1="0" y1="0" x2="0.2" y2="1">
      <stop offset="0" stop-color="#111118"/>
      <stop offset="1" stop-color="#0a0a0e"/>
    </linearGradient>
  </defs>
  <rect width="1024" height="1024" fill="url(#bg)"/>
  <!-- 1: Scatter -->
  <rect x="747.2" y="405.5" width="99.1" height="99.1" rx="23.8" fill="#d0d0d0" opacity="0.122"/>
  <!-- 2: Growth -->
  <rect x="405.5" y="63.7" width="99.1" height="99.1" rx="23.8" fill="#d0d0d0" opacity="0.372"/>
  <rect x="519.4" y="63.7" width="99.1" height="99.1" rx="23.8" fill="#e0e0e0" opacity="0.312"/>
  <rect x="861.2" y="63.7" width="99.1" height="99.1" rx="23.8" fill="#f0f0f0" opacity="0.256"/>
  <rect x="633.3" y="633.3" width="99.1" height="99.1" rx="23.8" fill="#e8e5e0" opacity="0.301"/>
  <rect x="861.2" y="633.3" width="99.1" height="99.1" rx="23.8" fill="#ebebeb" opacity="0.378"/>
  <rect x="291.6" y="861.2" width="99.1" height="99.1" rx="23.8" fill="#ebebeb" opacity="0.362"/>
  <!-- 3: Pi mono (exposed→edge→core gradient) -->
  <rect x="177.6" y="177.6" width="99.1" height="99.1" rx="23.8" fill="#e8e5e0" opacity="0.493"/>
  <rect x="291.6" y="405.5" width="99.1" height="99.1" rx="23.8" fill="#f0f0f0" opacity="0.559"/>
  <rect x="291.6" y="633.3" width="99.1" height="99.1" rx="23.8" fill="#ebebeb" opacity="0.558"/>
  <rect x="291.6" y="747.2" width="99.1" height="99.1" rx="23.8" fill="#f0f0f0" opacity="0.579"/>
  <rect x="633.3" y="747.2" width="99.1" height="99.1" rx="23.8" fill="#e0e0e0" opacity="0.453"/>
  <rect x="291.6" y="177.6" width="99.1" height="99.1" rx="23.8" fill="#d0d0d0" opacity="0.698"/>
  <rect x="633.3" y="177.6" width="99.1" height="99.1" rx="23.8" fill="#d0d0d0" opacity="0.700"/>
  <rect x="747.2" y="177.6" width="99.1" height="99.1" rx="23.8" fill="#f0f0f0" opacity="0.722"/>
  <rect x="291.6" y="291.6" width="99.1" height="99.1" rx="23.8" fill="#ebebeb" opacity="0.673"/>
  <rect x="633.3" y="405.5" width="99.1" height="99.1" rx="23.8" fill="#d0d0d0" opacity="0.725"/>
  <rect x="633.3" y="519.4" width="99.1" height="99.1" rx="23.8" fill="#e8e5e0" opacity="0.751"/>
  <rect x="519.4" y="177.6" width="99.1" height="99.1" rx="23.8" fill="#ebebeb" opacity="0.906"/>
  <!-- 4: Almost-sparks (tinted) -->
  <rect x="291.6" y="519.4" width="99.1" height="99.1" rx="23.8" fill="#e0ccc0" opacity="0.899"/>
  <rect x="747.2" y="747.2" width="99.1" height="99.1" rx="23.8" fill="#ddc8b8" opacity="0.854"/>
  <!-- 5: Sparks (vivid) -->
  <rect x="405.5" y="177.6" width="99.1" height="99.1" rx="23.8" fill="#e8445a" opacity="0.950"/>
  <rect x="633.3" y="291.6" width="99.1" height="99.1" rx="23.8" fill="#e8445a" opacity="0.950"/>
</svg>