<?xml version="1.0" encoding="UTF-8"?>
<!-- 42 -->
<svg xmlns="http://www.w3.org/2000/svg" viewBox="0 0 1024 1024" width="1024" height="1024">
  <defs>
    <linearGradient id="bg" x1="0" y1="0" x2="0.2" y2="1">
      <stop offset="0" stop-color="#111118"/>
      <stop offset="1" stop-color="#0a0a0e"/>
    </linearGradient>
  </defs>
  <rect width="1024" height="1024" fill="url(#bg)"/>
  <!-- 1: Scatter -->
  <rect x="226.5" y="129.2" width="84.6" height="84.6" rx="20.3" fill="#e0e0e0" opacity="0.107"/>
  <rect x="323.8" y="129.2" width="84.6" height="84.6" rx="20.3" fill="#e8e5e0" opacity="0.122"/>
  <rect x="129.2" y="518.3" width="84.6" height="84.6" rx="20.3" fill="#e8e5e0" opacity="0.133"/>
  <rect x="226.5" y="810.2" width="84.6" height="84.6" rx="20.3" fill="#d0d0d0" opacity="0.113"/>
  <rect x="810.2" y="810.2" width="84.6" height="84.6" rx="20.3" fill="#e0e0e0" opacity="0.086"/>
  <!-- 2: Growth -->
  <rect x="712.9" y="129.2" width="84.6" height="84.6" rx="20.3" fill="#ebebeb" opacity="0.294"/>
  <rect x="129.2" y="226.5" width="84.6" height="84.6" rx="20.3" fill="#ebebeb" opacity="0.377"/>
  <rect x="129.2" y="323.8" width="84.6" height="84.6" rx="20.3" fill="#f0f0f0" opacity="0.317"/>
  <rect x="615.6" y="421.0" width="84.6" height="84.6" rx="20.3" fill="#e8e5e0" opacity="0.268"/>
  <rect x="810.2" y="712.9" width="84.6" height="84.6" rx="20.3" fill="#e8e5e0" opacity="0.275"/>
  <rect x="615.6" y="810.2" width="84.6" height="84.6" rx="20.3" fill="#ebebeb" opacity="0.348"/>
  <!-- 3: Pi mono (exposed→edge→core gradient) -->
  <rect x="323.8" y="421.0" width="84.6" height="84.6" rx="20.3" fill="#e0e0e0" opacity="0.504"/>
  <rect x="615.6" y="518.3" width="84.6" height="84.6" rx="20.3" fill="#f0f0f0" opacity="0.535"/>
  <rect x="323.8" y="615.6" width="84.6" height="84.6" rx="20.3" fill="#e0e0e0" opacity="0.477"/>
  <rect x="323.8" y="712.9" width="84.6" height="84.6" rx="20.3" fill="#ebebeb" opacity="0.565"/>
  <rect x="518.3" y="226.5" width="84.6" height="84.6" rx="20.3" fill="#e0e0e0" opacity="0.769"/>
  <rect x="615.6" y="226.5" width="84.6" height="84.6" rx="20.3" fill="#e0e0e0" opacity="0.670"/>
  <rect x="323.8" y="323.8" width="84.6" height="84.6" rx="20.3" fill="#e8e5e0" opacity="0.705"/>
  <rect x="615.6" y="323.8" width="84.6" height="84.6" rx="20.3" fill="#f0f0f0" opacity="0.761"/>
  <rect x="615.6" y="712.9" width="84.6" height="84.6" rx="20.3" fill="#ebebeb" opacity="0.781"/>
  <rect x="712.9" y="712.9" width="84.6" height="84.6" rx="20.3" fill="#e8e5e0" opacity="0.905"/>
  <!-- 4: Almost-sparks (tinted) -->
  <rect x="421.0" y="226.5" width="84.6" height="84.6" rx="20.3" fill="#e0c0b0" opacity="0.849"/>
  <rect x="712.9" y="226.5" width="84.6" height="84.6" rx="20.3" fill="#e0ccc0" opacity="0.805"/>
  <rect x="323.8" y="518.3" width="84.6" height="84.6" rx="20.3" fill="#e0c0b0" opacity="0.871"/>
  <rect x="615.6" y="615.6" width="84.6" height="84.6" rx="20.3" fill="#ddc8b8" opacity="0.828"/>
  <!-- 5: Sparks (vivid) -->
  <rect x="226.5" y="226.5" width="84.6" height="84.6" rx="20.3" fill="#f0a030" opacity="0.950"/>
  <rect x="323.8" y="226.5" width="84.6" height="84.6" rx="20.3" fill="#f05a28" opacity="0.950"/>
</svg>