<?xml version="1.0" encoding="UTF-8"?>
<svg xmlns="http://www.w3.org/2000/svg" viewBox="0 0 1024 1024" width="1024" height="1024">
  <defs>
    <linearGradient id="bg" x1="0" y1="0" x2="0.2" y2="1">
      <stop offset="0" stop-color="#111118"/>
      <stop offset="1" stop-color="#0a0a0e"/>
    </linearGradient>
  </defs>
  <rect width="1024" height="1024" fill="url(#bg)"/>
  <!-- 1: Scatter -->
  <rect x="861.2" y="291.6" width="99.1" height="99.1" rx="23.8" fill="#e0e0e0" opacity="0.083"/>
  <rect x="747.2" y="633.3" width="99.1" height="99.1" rx="23.8" fill="#d0d0d0" opacity="0.135"/>
  <rect x="861.2" y="633.3" width="99.1" height="99.1" rx="23.8" fill="#e0e0e0" opacity="0.105"/>
  <!-- 2: Growth -->
  <rect x="861.2" y="177.6" width="99.1" height="99.1" rx="23.8" fill="#ebebeb" opacity="0.297"/>
  <rect x="177.6" y="519.4" width="99.1" height="99.1" rx="23.8" fill="#f0f0f0" opacity="0.348"/>
  <rect x="747.2" y="519.4" width="99.1" height="99.1" rx="23.8" fill="#e8e5e0" opacity="0.331"/>
  <rect x="291.6" y="633.3" width="99.1" height="99.1" rx="23.8" fill="#e8e5e0" opacity="0.315"/>
  <rect x="291.6" y="861.2" width="99.1" height="99.1" rx="23.8" fill="#f0f0f0" opacity="0.346"/>
  <rect x="861.2" y="861.2" width="99.1" height="99.1" rx="23.8" fill="#f0f0f0" opacity="0.345"/>
  <!-- 3: Pi mono (exposed→edge→core gradient) -->
  <rect x="177.6" y="177.6" width="99.1" height="99.1" rx="23.8" fill="#f0f0f0" opacity="0.542"/>
  <rect x="291.6" y="747.2" width="99.1" height="99.1" rx="23.8" fill="#ebebeb" opacity="0.485"/>
  <rect x="291.6" y="177.6" width="99.1" height="99.1" rx="23.8" fill="#d0d0d0" opacity="0.777"/>
  <rect x="405.5" y="177.6" width="99.1" height="99.1" rx="23.8" fill="#e0e0e0" opacity="0.739"/>
  <rect x="519.4" y="177.6" width="99.1" height="99.1" rx="23.8" fill="#d0d0d0" opacity="0.720"/>
  <rect x="633.3" y="291.6" width="99.1" height="99.1" rx="23.8" fill="#ebebeb" opacity="0.787"/>
  <rect x="291.6" y="405.5" width="99.1" height="99.1" rx="23.8" fill="#f0f0f0" opacity="0.761"/>
  <rect x="633.3" y="405.5" width="99.1" height="99.1" rx="23.8" fill="#d0d0d0" opacity="0.761"/>
  <rect x="291.6" y="519.4" width="99.1" height="99.1" rx="23.8" fill="#ebebeb" opacity="0.771"/>
  <rect x="633.3" y="519.4" width="99.1" height="99.1" rx="23.8" fill="#d0d0d0" opacity="0.748"/>
  <rect x="633.3" y="747.2" width="99.1" height="99.1" rx="23.8" fill="#e8e5e0" opacity="0.720"/>
  <!-- 4: Almost-sparks (tinted) -->
  <rect x="633.3" y="177.6" width="99.1" height="99.1" rx="23.8" fill="#d8c4bc" opacity="0.841"/>
  <rect x="747.2" y="177.6" width="99.1" height="99.1" rx="23.8" fill="#e0ccc0" opacity="0.820"/>
  <rect x="291.6" y="291.6" width="99.1" height="99.1" rx="23.8" fill="#e0ccc0" opacity="0.865"/>
  <!-- 5: Sparks (vivid) -->
  <rect x="633.3" y="633.3" width="99.1" height="99.1" rx="23.8" fill="#f05a28" opacity="0.950"/>
  <rect x="747.2" y="747.2" width="99.1" height="99.1" rx="23.8" fill="#e8445a" opacity="0.950"/>
</svg>