<?xml version="1.0" encoding="UTF-8"?>
<svg xmlns="http://www.w3.org/2000/svg" viewBox="0 0 1024 1024" width="1024" height="1024">
  <defs>
    <linearGradient id="bg" x1="0" y1="0" x2="0.2" y2="1">
      <stop offset="0" stop-color="#111118"/>
      <stop offset="1" stop-color="#0a0a0e"/>
    </linearGradient>
  </defs>
  <rect width="1024" height="1024" fill="url(#bg)"/>
  <!-- 1: Scatter -->
  <rect x="405.5" y="63.7" width="99.1" height="99.1" rx="23.8" fill="#f0f0f0" opacity="0.101"/>
  <rect x="747.2" y="633.3" width="99.1" height="99.1" rx="23.8" fill="#f0f0f0" opacity="0.110"/>
  <!-- 2: Growth -->
  <rect x="63.7" y="291.6" width="99.1" height="99.1" rx="23.8" fill="#e0e0e0" opacity="0.302"/>
  <rect x="177.6" y="519.4" width="99.1" height="99.1" rx="23.8" fill="#f0f0f0" opacity="0.338"/>
  <rect x="177.6" y="747.2" width="99.1" height="99.1" rx="23.8" fill="#ebebeb" opacity="0.295"/>
  <rect x="291.6" y="861.2" width="99.1" height="99.1" rx="23.8" fill="#e8e5e0" opacity="0.384"/>
  <rect x="405.5" y="861.2" width="99.1" height="99.1" rx="23.8" fill="#d0d0d0" opacity="0.255"/>
  <rect x="747.2" y="861.2" width="99.1" height="99.1" rx="23.8" fill="#f0f0f0" opacity="0.321"/>
  <!-- 3: Pi mono (exposed→edge→core gradient) -->
  <rect x="747.2" y="177.6" width="99.1" height="99.1" rx="23.8" fill="#e0e0e0" opacity="0.559"/>
  <rect x="633.3" y="405.5" width="99.1" height="99.1" rx="23.8" fill="#d0d0d0" opacity="0.563"/>
  <rect x="291.6" y="519.4" width="99.1" height="99.1" rx="23.8" fill="#ebebeb" opacity="0.564"/>
  <rect x="405.5" y="177.6" width="99.1" height="99.1" rx="23.8" fill="#e8e5e0" opacity="0.655"/>
  <rect x="519.4" y="177.6" width="99.1" height="99.1" rx="23.8" fill="#e8e5e0" opacity="0.762"/>
  <rect x="291.6" y="291.6" width="99.1" height="99.1" rx="23.8" fill="#f0f0f0" opacity="0.668"/>
  <rect x="633.3" y="291.6" width="99.1" height="99.1" rx="23.8" fill="#f0f0f0" opacity="0.771"/>
  <rect x="291.6" y="405.5" width="99.1" height="99.1" rx="23.8" fill="#f0f0f0" opacity="0.701"/>
  <rect x="633.3" y="633.3" width="99.1" height="99.1" rx="23.8" fill="#f0f0f0" opacity="0.707"/>
  <!-- 4: Almost-sparks (tinted) -->
  <rect x="633.3" y="519.4" width="99.1" height="99.1" rx="23.8" fill="#e0ccc0" opacity="0.851"/>
  <rect x="291.6" y="747.2" width="99.1" height="99.1" rx="23.8" fill="#d8c4bc" opacity="0.897"/>
  <rect x="633.3" y="747.2" width="99.1" height="99.1" rx="23.8" fill="#d8c4bc" opacity="0.860"/>
  <rect x="747.2" y="747.2" width="99.1" height="99.1" rx="23.8" fill="#d8c4bc" opacity="0.801"/>
  <!-- 5: Sparks (vivid) -->
  <rect x="177.6" y="177.6" width="99.1" height="99.1" rx="23.8" fill="#f05a28" opacity="0.950"/>
  <rect x="291.6" y="177.6" width="99.1" height="99.1" rx="23.8" fill="#e8445a" opacity="0.950"/>
  <rect x="633.3" y="177.6" width="99.1" height="99.1" rx="23.8" fill="#e8445a" opacity="0.950"/>
</svg>