<?xml version="1.0" encoding="UTF-8"?>
<svg xmlns="http://www.w3.org/2000/svg" viewBox="0 0 1024 1024" width="1024" height="1024">
  <defs>
    <linearGradient id="bg" x1="0" y1="0" x2="0.2" y2="1">
      <stop offset="0" stop-color="#111118"/>
      <stop offset="1" stop-color="#0a0a0e"/>
    </linearGradient>
  </defs>
  <rect width="1024" height="1024" fill="url(#bg)"/>
  <!-- 1: Scatter -->
  <rect x="861.2" y="747.2" width="99.1" height="99.1" rx="23.8" fill="#ebebeb" opacity="0.119"/>
  <rect x="747.2" y="861.2" width="99.1" height="99.1" rx="23.8" fill="#e8e5e0" opacity="0.086"/>
  <!-- 2: Growth -->
  <rect x="63.7" y="63.7" width="99.1" height="99.1" rx="23.8" fill="#e0e0e0" opacity="0.328"/>
  <rect x="291.6" y="63.7" width="99.1" height="99.1" rx="23.8" fill="#ebebeb" opacity="0.333"/>
  <rect x="861.2" y="177.6" width="99.1" height="99.1" rx="23.8" fill="#ebebeb" opacity="0.361"/>
  <rect x="747.2" y="633.3" width="99.1" height="99.1" rx="23.8" fill="#ebebeb" opacity="0.256"/>
  <rect x="177.6" y="747.2" width="99.1" height="99.1" rx="23.8" fill="#f0f0f0" opacity="0.335"/>
  <rect x="861.2" y="861.2" width="99.1" height="99.1" rx="23.8" fill="#e0e0e0" opacity="0.362"/>
  <!-- 3: Pi mono (exposed→edge→core gradient) -->
  <rect x="291.6" y="405.5" width="99.1" height="99.1" rx="23.8" fill="#e8e5e0" opacity="0.519"/>
  <rect x="291.6" y="519.4" width="99.1" height="99.1" rx="23.8" fill="#f0f0f0" opacity="0.481"/>
  <rect x="291.6" y="747.2" width="99.1" height="99.1" rx="23.8" fill="#f0f0f0" opacity="0.464"/>
  <rect x="291.6" y="177.6" width="99.1" height="99.1" rx="23.8" fill="#f0f0f0" opacity="0.749"/>
  <rect x="519.4" y="177.6" width="99.1" height="99.1" rx="23.8" fill="#e8e5e0" opacity="0.652"/>
  <rect x="747.2" y="177.6" width="99.1" height="99.1" rx="23.8" fill="#f0f0f0" opacity="0.798"/>
  <rect x="291.6" y="291.6" width="99.1" height="99.1" rx="23.8" fill="#ebebeb" opacity="0.709"/>
  <rect x="633.3" y="291.6" width="99.1" height="99.1" rx="23.8" fill="#f0f0f0" opacity="0.777"/>
  <rect x="291.6" y="633.3" width="99.1" height="99.1" rx="23.8" fill="#ebebeb" opacity="0.796"/>
  <rect x="747.2" y="747.2" width="99.1" height="99.1" rx="23.8" fill="#d0d0d0" opacity="0.911"/>
  <!-- 4: Almost-sparks (tinted) -->
  <rect x="177.6" y="177.6" width="99.1" height="99.1" rx="23.8" fill="#e0c0b0" opacity="0.814"/>
  <rect x="405.5" y="177.6" width="99.1" height="99.1" rx="23.8" fill="#e0c0b0" opacity="0.854"/>
  <rect x="633.3" y="177.6" width="99.1" height="99.1" rx="23.8" fill="#d8c4bc" opacity="0.896"/>
  <rect x="633.3" y="519.4" width="99.1" height="99.1" rx="23.8" fill="#e0c0b0" opacity="0.872"/>
  <!-- 5: Sparks (vivid) -->
  <rect x="633.3" y="633.3" width="99.1" height="99.1" rx="23.8" fill="#f05a28" opacity="0.950"/>
  <rect x="633.3" y="747.2" width="99.1" height="99.1" rx="23.8" fill="#f0a030" opacity="0.950"/>
</svg>